<?xml version="1.0" encoding="UTF-8" standalone="no"?>
<!DOCTYPE svg PUBLIC "-//W3C//DTD SVG 20010904//EN"
              "http://www.w3.org/TR/2001/REC-SVG-20010904/DTD/svg10.dtd">

<svg xmlns="http://www.w3.org/2000/svg"
     width="8.88889in" height="6.66667in"
     viewBox="0 0 800 600">
  <path id="Selection"
        fill="none" stroke="black" stroke-width="1"
        d="M 305.00,66.00
           C 305.00,66.00 482.00,66.00 482.00,66.00
             482.00,66.00 529.00,66.00 529.00,66.00
             536.49,66.14 535.99,68.26 536.00,75.00
             536.00,75.00 536.00,286.00 536.00,286.00
             536.00,286.00 650.00,286.00 650.00,286.00
             647.64,290.59 639.97,297.04 636.00,301.00
             636.00,301.00 602.00,333.01 602.00,333.01
             602.00,333.01 545.00,387.09 545.00,387.09
             545.00,387.09 512.00,418.91 512.00,418.91
             512.00,418.91 477.00,452.00 477.00,452.00
             477.00,452.00 436.00,491.00 436.00,491.00
             433.40,493.58 423.24,503.81 420.00,503.80
             417.28,503.80 406.60,493.34 404.00,490.91
             404.00,490.91 373.00,461.04 373.00,461.04
             373.00,461.04 361.00,450.00 361.00,450.00
             361.00,450.00 304.00,395.91 304.00,395.91
             304.00,395.91 251.00,345.09 251.00,345.09
             251.00,345.09 212.00,308.04 212.00,308.04
             204.52,300.88 196.07,294.48 190.00,286.00
             190.00,286.00 305.00,286.00 305.00,286.00
             305.00,286.00 305.00,66.00 305.00,66.00 Z" />
</svg>
